<?xml version="1.0" encoding="utf-8"?>
<!-- Generator: Adobe Illustrator 22.1.0, SVG Export Plug-In . SVG Version: 6.00 Build 0)  -->
<svg version="1.1" id="Layer_1" xmlns="http://www.w3.org/2000/svg" xmlns:xlink="http://www.w3.org/1999/xlink" x="0px" y="0px"
	 viewBox="0 0 338.2 338.7" style="enable-background:new 0 0 338.2 338.7;" xml:space="preserve">
<style type="text/css">
	.st0{fill:#FFFFFF;}
</style>
<g>
	<path class="st0" d="M267.5,209.8c-6.9-7.2-15.3-11.1-24.2-11.1c-8.8,0-17.2,3.8-24.4,11l-22.6,22.5c-1.9-1-3.7-1.9-5.5-2.9
		c-2.6-1.3-5-2.5-7.1-3.8c-21.2-13.4-40.4-31-58.8-53.6c-8.9-11.3-14.9-20.8-19.3-30.5c5.9-5.4,11.3-10.9,16.6-16.3c2-2,4-4.1,6-6.1
		c15-15,15-34.5,0-49.5l-19.5-19.5c-2.2-2.2-4.5-4.5-6.6-6.8c-4.3-4.4-8.8-9-13.4-13.3c-6.9-6.9-15.2-10.5-24-10.5
		c-8.7,0-17.2,3.6-24.3,10.5l-0.1,0.1L15.8,54.8C6.7,63.9,1.4,75.1,0.3,88c-1.7,20.9,4.4,40.3,9.2,53c11.6,31.2,28.9,60.2,54.7,91.2
		c31.3,37.4,69,66.9,112,87.7c16.4,7.8,38.4,17,62.9,18.6c1.5,0.1,3.1,0.1,4.5,0.1c16.5,0,30.4-5.9,41.2-17.7
		c0.1-0.1,0.2-0.2,0.3-0.4c3.7-4.5,8-8.6,12.5-12.9c3.1-2.9,6.2-6,9.3-9.2c7.1-7.4,10.8-15.9,10.8-24.7c0-8.9-3.8-17.4-11-24.5
		L267.5,209.8z M293,285.1C293,285.1,293,285.2,293,285.1c-2.8,3-5.6,5.7-8.7,8.7c-4.6,4.4-9.4,9.1-13.8,14.3
		c-7.2,7.7-15.7,11.4-26.9,11.4c-1.1,0-2.2,0-3.3-0.1c-21.2-1.4-41-9.7-55.8-16.7c-40.5-19.6-76-47.4-105.5-82.6
		c-24.4-29.4-40.7-56.5-51.5-85.7c-6.7-17.8-9.1-31.7-8-44.8c0.7-8.4,3.9-15.3,9.9-21.2L53.8,44c3.5-3.3,7.2-5.1,10.9-5.1
		c4.5,0,8.1,2.7,10.4,5l0.2,0.2c4.4,4.1,8.5,8.3,12.9,12.8c2.2,2.3,4.5,4.6,6.8,6.9l19.5,19.5c7.6,7.6,7.6,14.6,0,22.2
		c-2.1,2.1-4.1,4.1-6.1,6.1c-6,6.1-11.7,11.9-17.9,17.4c-0.1,0.1-0.3,0.2-0.4,0.4c-6.1,6.2-5,12.2-3.7,16.2l0.2,0.6
		c5.1,12.3,12.2,23.9,23.1,37.7l0.1,0.1c19.7,24.3,40.5,43.3,63.5,57.8c2.9,1.9,5.9,3.4,8.8,4.8c2.6,1.3,5,2.5,7.1,3.8
		c0.3,0.1,0.6,0.4,0.9,0.5c2.4,1.2,4.7,1.8,7.1,1.8c5.9,0,9.7-3.7,10.9-4.9l24.4-24.4c2.4-2.4,6.3-5.4,10.8-5.4
		c4.4,0,8.1,2.8,10.3,5.2l39.5,39.5C300.3,270,300.3,277.5,293,285.1L293,285.1z M293,285.1"/>
	<path class="st0" d="M182.8,80.6c18.7,3.1,35.7,12,49.3,25.6c13.6,13.6,22.4,30.6,25.6,49.3c0.8,4.7,4.9,8,9.5,8
		c0.6,0,1.1-0.1,1.6-0.1c5.3-0.9,8.8-5.9,7.9-11.2c-3.9-22.7-14.6-43.3-31-59.7c-16.4-16.4-37-27.1-59.7-31
		c-5.3-0.9-10.2,2.6-11.2,7.9C174.1,74.6,177.5,79.7,182.8,80.6L182.8,80.6z M182.8,80.6"/>
	<path class="st0" d="M338.1,149.4c-6.4-37.3-24-71.3-51-98.3c-27-27-61-44.6-98.3-51c-5.2-0.9-10.2,2.6-11.1,7.9
		c-0.9,5.3,2.6,10.2,7.9,11.2c33.3,5.6,63.7,21.4,87.9,45.5c24.2,24.2,39.9,54.5,45.5,87.9c0.8,4.7,4.9,8,9.5,8
		c0.6,0,1.1-0.1,1.6-0.1C335.4,159.6,339,154.6,338.1,149.4L338.1,149.4z M338.1,149.4"/>
</g>
</svg>
